<svg width="20" height="18" viewBox="0 0 20 18" fill="none" xmlns="http://www.w3.org/2000/svg">
<path d="M1.63934 12.3115C0.852459 12.3115 0 12.4426 0 13.3934V16.8361C0 17.7869 0.852459 17.918 1.63934 17.918C2.42623 17.918 3.27869 17.7869 3.27869 16.8361V13.3934C3.27869 12.4426 2.42623 12.3115 1.63934 12.3115Z" fill="white"/>
<path d="M1.73762 17.8853C2.52451 17.8853 3.2786 17.7541 3.2786 16.8033V13.3934C3.2786 12.4426 2.49172 12.3115 1.70483 12.3115" fill="white"/>
<path d="M7.37702 8.2459C6.59014 8.2459 5.90161 8.37704 5.90161 9.32786V16.8361C5.90161 17.7869 6.59014 17.918 7.37702 17.918C8.16391 17.918 8.85243 17.7869 8.85243 16.8361V9.32786C8.85243 8.37704 8.16391 8.2459 7.37702 8.2459Z" fill="white"/>
<path d="M7.31159 17.8852C8.09848 17.8852 8.85258 17.7541 8.85258 16.8033V9.32786C8.85258 8.37704 8.06569 8.2459 7.27881 8.2459" fill="white"/>
<path d="M12.9508 4.18033C12.1639 4.18033 11.4753 4.31148 11.4753 5.26229V16.8361C11.4753 17.7869 12.1639 17.918 12.9508 17.918C13.7376 17.918 14.4262 17.7869 14.4262 16.8361V5.26229C14.4262 4.31148 13.7376 4.18033 12.9508 4.18033Z" fill="white"/>
<path d="M12.8853 17.8853C13.6722 17.8853 14.4263 17.7541 14.4263 16.8033V5.2623C14.4263 4.31148 13.6394 4.18033 12.8525 4.18033" fill="white"/>
<path d="M18.5245 0.114761C17.7376 0.114761 17.0491 0.245909 17.0491 1.19673V16.8361C17.0491 17.7869 17.7376 17.918 18.5245 17.918C19.3114 17.918 19.9999 17.7869 19.9999 16.8361V1.16394C19.9999 0.213122 19.3114 0.114761 18.5245 0.114761Z" fill="#BCBCBC"/>
<path d="M18.4591 17.8853C19.2459 17.8853 20 17.7541 20 16.8033V1.16394C20 0.213118 19.2132 0.0819702 18.4263 0.0819702" fill="#A9AAA9"/>
</svg>
