<svg width="20" height="16" viewBox="0 0 20 16" fill="none" xmlns="http://www.w3.org/2000/svg">
<path d="M9.99986 9.83708C8.34775 9.83708 7.00366 11.1811 7.00366 12.8331C7.00366 14.4852 8.34765 15.8293 9.99986 15.8293C11.6519 15.8293 12.996 14.4853 12.996 12.8331C12.996 11.1811 11.6519 9.83708 9.99986 9.83708ZM9.99986 14.4797C9.09215 14.4797 8.3534 13.7409 8.3534 12.8331C8.3534 11.9254 9.09215 11.1867 9.99986 11.1867C10.908 11.1867 11.6463 11.9254 11.6463 12.8331C11.6463 13.7409 10.908 14.4797 9.99986 14.4797Z" fill="white"/>
<path d="M9.99984 6.57347C8.00736 6.57347 6.13409 7.34978 4.72524 8.75869C4.4617 9.02222 4.4617 9.44927 4.72524 9.71285C4.85713 9.84474 5.02967 9.91058 5.20237 9.91058C5.37511 9.91058 5.54771 9.84469 5.6795 9.71285C6.83341 8.55864 8.36787 7.92306 9.99984 7.92306C11.6321 7.92306 13.1663 8.55864 14.3205 9.71285C14.5837 9.97648 15.0114 9.97648 15.2747 9.71285C15.5383 9.44931 15.5383 9.02227 15.2747 8.75869C13.8657 7.34969 11.9926 6.57347 9.99984 6.57347Z" fill="white"/>
<path d="M2.3486 6.38163C2.08497 6.64521 2.08497 7.07221 2.3486 7.33584C2.61184 7.59943 3.03918 7.59943 3.30286 7.33584C6.99583 3.64357 13.0042 3.64357 16.6971 7.33584C16.829 7.46768 17.0015 7.53353 17.1743 7.53353C17.347 7.53353 17.5195 7.46764 17.6514 7.33584C17.915 7.07226 17.915 6.64526 17.6514 6.38163C13.4324 2.16283 6.56741 2.16283 2.3486 6.38163Z" fill="white"/>
<path d="M19.8024 4.23103C17.1838 1.61258 13.7027 0.170685 9.99984 0.170685C6.29701 0.170685 2.81583 1.61258 0.197724 4.23103C-0.065908 4.49462 -0.065908 4.92166 0.197724 5.18529C0.461209 5.44888 0.888549 5.44888 1.15189 5.18529C3.51544 2.82179 6.65742 1.52032 9.99984 1.52032C13.3423 1.52032 16.4846 2.82179 18.8481 5.18529C18.9799 5.31708 19.1524 5.38298 19.3252 5.38298C19.4979 5.38298 19.6705 5.31704 19.8024 5.18529C20.0659 4.92166 20.0659 4.49462 19.8024 4.23103Z" fill="white"/>
</svg>
